<svg width="26" height="25" viewBox="0 0 26 25" fill="none" xmlns="http://www.w3.org/2000/svg">
<path d="M7.50854 11.6667V6.33333C7.50854 4.91885 8.07045 3.56229 9.07064 2.5621C10.0708 1.5619 11.4274 1 12.8419 1C14.2564 1 15.6129 1.5619 16.6131 2.5621C17.6133 3.56229 18.1752 4.91885 18.1752 6.33333V11.6667" stroke="#FF0080" stroke-width="2" stroke-linecap="round"/>
<path d="M1.76716 12.5574C1.9605 10.2361 2.05783 9.07608 2.82316 8.37075C3.5885 7.66541 4.75383 7.66675 7.08316 7.66675H18.6018C20.9298 7.66675 22.0952 7.66675 22.8605 8.37075C23.6258 9.07475 23.7232 10.2361 23.9165 12.5574L24.6018 20.7787C24.7138 22.1294 24.7698 22.8054 24.3752 23.2361C23.9778 23.6667 23.3005 23.6667 21.9432 23.6667H3.7405C2.3845 23.6667 1.70583 23.6667 1.30983 23.2361C0.913831 22.8054 0.969831 22.1294 1.08316 20.7787L1.76716 12.5574Z" stroke="#FF0080" stroke-width="2"/>
</svg>
